<mxfile host="app.diagrams.net" modified="2024-06-19T15:17:47.421Z" agent="Mozilla/5.0 (Windows NT 10.0; Win64; x64; rv:127.0) Gecko/20100101 Firefox/127.0" etag="o03SgXQk6a3zmVUI80A_" version="24.5.5" type="github">
  <diagram id="C5RBs43oDa-KdzZeNtuy" name="Page-1">
    <mxGraphModel dx="1290" dy="503" grid="1" gridSize="10" guides="1" tooltips="1" connect="1" arrows="1" fold="1" page="1" pageScale="1" pageWidth="827" pageHeight="1169" math="0" shadow="0">
      <root>
        <mxCell id="WIyWlLk6GJQsqaUBKTNV-0" />
        <mxCell id="WIyWlLk6GJQsqaUBKTNV-1" parent="WIyWlLk6GJQsqaUBKTNV-0" />
        <mxCell id="nPeeO9xb6MQ6vf5LnSmX-6" style="edgeStyle=orthogonalEdgeStyle;rounded=0;orthogonalLoop=1;jettySize=auto;html=1;exitX=0.5;exitY=1;exitDx=0;exitDy=0;entryX=0.5;entryY=0;entryDx=0;entryDy=0;" edge="1" parent="WIyWlLk6GJQsqaUBKTNV-1" source="nPeeO9xb6MQ6vf5LnSmX-0" target="nPeeO9xb6MQ6vf5LnSmX-1">
          <mxGeometry relative="1" as="geometry" />
        </mxCell>
        <mxCell id="nPeeO9xb6MQ6vf5LnSmX-0" value="Mulai" style="ellipse;whiteSpace=wrap;html=1;" vertex="1" parent="WIyWlLk6GJQsqaUBKTNV-1">
          <mxGeometry x="305" y="60" width="90" height="50" as="geometry" />
        </mxCell>
        <mxCell id="nPeeO9xb6MQ6vf5LnSmX-7" style="edgeStyle=orthogonalEdgeStyle;rounded=0;orthogonalLoop=1;jettySize=auto;html=1;exitX=0.5;exitY=1;exitDx=0;exitDy=0;entryX=0.5;entryY=0;entryDx=0;entryDy=0;" edge="1" parent="WIyWlLk6GJQsqaUBKTNV-1" source="nPeeO9xb6MQ6vf5LnSmX-1" target="nPeeO9xb6MQ6vf5LnSmX-2">
          <mxGeometry relative="1" as="geometry" />
        </mxCell>
        <mxCell id="nPeeO9xb6MQ6vf5LnSmX-1" value="Menerima input string pengguna" style="rounded=1;whiteSpace=wrap;html=1;" vertex="1" parent="WIyWlLk6GJQsqaUBKTNV-1">
          <mxGeometry x="300" y="160" width="100" height="40" as="geometry" />
        </mxCell>
        <mxCell id="nPeeO9xb6MQ6vf5LnSmX-8" style="edgeStyle=orthogonalEdgeStyle;rounded=0;orthogonalLoop=1;jettySize=auto;html=1;exitX=0.5;exitY=1;exitDx=0;exitDy=0;entryX=0.5;entryY=0;entryDx=0;entryDy=0;" edge="1" parent="WIyWlLk6GJQsqaUBKTNV-1" source="nPeeO9xb6MQ6vf5LnSmX-2" target="nPeeO9xb6MQ6vf5LnSmX-3">
          <mxGeometry relative="1" as="geometry" />
        </mxCell>
        <mxCell id="nPeeO9xb6MQ6vf5LnSmX-2" value="Menghitung panjang string" style="rounded=1;whiteSpace=wrap;html=1;" vertex="1" parent="WIyWlLk6GJQsqaUBKTNV-1">
          <mxGeometry x="300" y="240" width="100" height="40" as="geometry" />
        </mxCell>
        <mxCell id="nPeeO9xb6MQ6vf5LnSmX-9" style="edgeStyle=orthogonalEdgeStyle;rounded=0;orthogonalLoop=1;jettySize=auto;html=1;exitX=0.5;exitY=1;exitDx=0;exitDy=0;entryX=0.5;entryY=0;entryDx=0;entryDy=0;" edge="1" parent="WIyWlLk6GJQsqaUBKTNV-1" source="nPeeO9xb6MQ6vf5LnSmX-3" target="nPeeO9xb6MQ6vf5LnSmX-4">
          <mxGeometry relative="1" as="geometry" />
        </mxCell>
        <mxCell id="nPeeO9xb6MQ6vf5LnSmX-3" value="Menampilkan hasil" style="rounded=1;whiteSpace=wrap;html=1;" vertex="1" parent="WIyWlLk6GJQsqaUBKTNV-1">
          <mxGeometry x="300" y="320" width="100" height="40" as="geometry" />
        </mxCell>
        <mxCell id="nPeeO9xb6MQ6vf5LnSmX-4" value="Selesai" style="ellipse;whiteSpace=wrap;html=1;" vertex="1" parent="WIyWlLk6GJQsqaUBKTNV-1">
          <mxGeometry x="305" y="410" width="90" height="50" as="geometry" />
        </mxCell>
      </root>
    </mxGraphModel>
  </diagram>
</mxfile>
